<svg id="visual" viewBox="0 0 900 600" width="900" height="600" xmlns="http://www.w3.org/2000/svg" xmlns:xlink="http://www.w3.org/1999/xlink" version="1.1"><g stroke-width="1" stroke-linejoin="bevel"><path d="M433 318L436 373L540 338Z" fill="#686868" stroke="#686868"></path><path d="M436 373L474 399L540 338Z" fill="#3d3d3d" stroke="#3d3d3d"></path><path d="M540 338L550 314L433 318Z" fill="#303030" stroke="#303030"></path><path d="M436 373L479 443L474 399Z" fill="#595959" stroke="#595959"></path><path d="M474 399L556 448L540 338Z" fill="#686868" stroke="#686868"></path><path d="M550 314L547 260L433 318Z" fill="#777777" stroke="#777777"></path><path d="M547 260L488 225L433 318Z" fill="#4b4b4b" stroke="#4b4b4b"></path><path d="M479 443L556 448L474 399Z" fill="#3d3d3d" stroke="#3d3d3d"></path><path d="M540 338L629 364L550 314Z" fill="#777777" stroke="#777777"></path><path d="M556 448L609 409L540 338Z" fill="#777777" stroke="#777777"></path><path d="M663 260L574 224L547 260Z" fill="#777777" stroke="#777777"></path><path d="M609 409L629 364L540 338Z" fill="#373737" stroke="#373737"></path><path d="M663 260L547 260L550 314Z" fill="#444444" stroke="#444444"></path><path d="M547 260L515 180L488 225Z" fill="#4b4b4b" stroke="#4b4b4b"></path><path d="M380 206L341 271L433 318Z" fill="#777777" stroke="#777777"></path><path d="M433 318L330 423L436 373Z" fill="#4b4b4b" stroke="#4b4b4b"></path><path d="M436 373L344 458L479 443Z" fill="#444444" stroke="#444444"></path><path d="M574 224L515 180L547 260Z" fill="#3d3d3d" stroke="#3d3d3d"></path><path d="M488 225L380 206L433 318Z" fill="#686868" stroke="#686868"></path><path d="M390 172L380 206L488 225Z" fill="#444444" stroke="#444444"></path><path d="M380 206L333 260L341 271Z" fill="#373737" stroke="#373737"></path><path d="M275 370L330 423L341 271Z" fill="#444444" stroke="#444444"></path><path d="M341 271L330 423L433 318Z" fill="#3d3d3d" stroke="#3d3d3d"></path><path d="M515 180L492 167L488 225Z" fill="#444444" stroke="#444444"></path><path d="M330 423L344 458L436 373Z" fill="#373737" stroke="#373737"></path><path d="M569 571L601 502L556 448Z" fill="#686868" stroke="#686868"></path><path d="M457 145L390 172L488 225Z" fill="#373737" stroke="#373737"></path><path d="M281 105L266 259L333 260Z" fill="#525252" stroke="#525252"></path><path d="M629 364L663 260L550 314Z" fill="#444444" stroke="#444444"></path><path d="M576 99L479 111L515 180Z" fill="#777777" stroke="#777777"></path><path d="M479 111L457 145L492 167Z" fill="#686868" stroke="#686868"></path><path d="M569 571L556 448L479 443Z" fill="#777777" stroke="#777777"></path><path d="M556 448L601 502L609 409Z" fill="#303030" stroke="#303030"></path><path d="M717 417L700 323L629 364Z" fill="#4b4b4b" stroke="#4b4b4b"></path><path d="M629 364L700 323L663 260Z" fill="#373737" stroke="#373737"></path><path d="M479 111L492 167L515 180Z" fill="#616161" stroke="#616161"></path><path d="M492 167L457 145L488 225Z" fill="#525252" stroke="#525252"></path><path d="M266 259L275 370L341 271Z" fill="#3d3d3d" stroke="#3d3d3d"></path><path d="M330 423L283 419L344 458Z" fill="#777777" stroke="#777777"></path><path d="M275 370L283 419L330 423Z" fill="#595959" stroke="#595959"></path><path d="M717 417L629 364L609 409Z" fill="#595959" stroke="#595959"></path><path d="M283 419L329 497L344 458Z" fill="#686868" stroke="#686868"></path><path d="M344 458L414 552L479 443Z" fill="#4b4b4b" stroke="#4b4b4b"></path><path d="M390 548L414 552L344 458Z" fill="#303030" stroke="#303030"></path><path d="M329 497L390 548L344 458Z" fill="#303030" stroke="#303030"></path><path d="M700 323L698 267L663 260Z" fill="#3d3d3d" stroke="#3d3d3d"></path><path d="M576 99L515 180L574 224Z" fill="#777777" stroke="#777777"></path><path d="M648 177L574 224L663 260Z" fill="#595959" stroke="#595959"></path><path d="M457 145L385 64L390 172Z" fill="#4b4b4b" stroke="#4b4b4b"></path><path d="M281 105L333 260L380 206Z" fill="#444444" stroke="#444444"></path><path d="M333 260L266 259L341 271Z" fill="#595959" stroke="#595959"></path><path d="M715 246L648 177L663 260Z" fill="#686868" stroke="#686868"></path><path d="M515 600L569 571L479 443Z" fill="#616161" stroke="#616161"></path><path d="M707 481L717 417L609 409Z" fill="#4b4b4b" stroke="#4b4b4b"></path><path d="M707 481L609 409L601 502Z" fill="#686868" stroke="#686868"></path><path d="M700 323L715 246L698 267Z" fill="#6f6f6f" stroke="#6f6f6f"></path><path d="M816 275L715 246L700 323Z" fill="#595959" stroke="#595959"></path><path d="M698 267L715 246L663 260Z" fill="#4b4b4b" stroke="#4b4b4b"></path><path d="M283 419L313 529L329 497Z" fill="#525252" stroke="#525252"></path><path d="M329 497L313 529L390 548Z" fill="#595959" stroke="#595959"></path><path d="M241 250L236 270L266 259Z" fill="#6f6f6f" stroke="#6f6f6f"></path><path d="M266 259L236 270L275 370Z" fill="#525252" stroke="#525252"></path><path d="M275 370L183 399L283 419Z" fill="#373737" stroke="#373737"></path><path d="M283 419L246 552L313 529Z" fill="#777777" stroke="#777777"></path><path d="M241 250L266 259L218 177Z" fill="#525252" stroke="#525252"></path><path d="M717 417L741 368L700 323Z" fill="#686868" stroke="#686868"></path><path d="M414 552L515 600L479 443Z" fill="#303030" stroke="#303030"></path><path d="M450 600L515 600L414 552Z" fill="#4b4b4b" stroke="#4b4b4b"></path><path d="M450 600L414 552L394 600Z" fill="#616161" stroke="#616161"></path><path d="M394 600L414 552L390 548Z" fill="#6f6f6f" stroke="#6f6f6f"></path><path d="M281 105L380 206L390 172Z" fill="#525252" stroke="#525252"></path><path d="M684 112L576 99L648 177Z" fill="#686868" stroke="#686868"></path><path d="M648 177L576 99L574 224Z" fill="#303030" stroke="#303030"></path><path d="M712 545L707 481L601 502Z" fill="#777777" stroke="#777777"></path><path d="M863 421L863 414L741 368Z" fill="#444444" stroke="#444444"></path><path d="M576 99L488 71L479 111Z" fill="#686868" stroke="#686868"></path><path d="M479 111L385 64L457 145Z" fill="#303030" stroke="#303030"></path><path d="M313 529L394 600L390 548Z" fill="#6f6f6f" stroke="#6f6f6f"></path><path d="M515 600L591 600L569 571Z" fill="#444444" stroke="#444444"></path><path d="M569 571L591 600L601 502Z" fill="#777777" stroke="#777777"></path><path d="M488 71L385 64L479 111Z" fill="#595959" stroke="#595959"></path><path d="M125 263L185 329L236 270Z" fill="#373737" stroke="#373737"></path><path d="M236 270L185 329L275 370Z" fill="#373737" stroke="#373737"></path><path d="M653 600L712 545L601 502Z" fill="#6f6f6f" stroke="#6f6f6f"></path><path d="M707 481L760 498L717 417Z" fill="#3d3d3d" stroke="#3d3d3d"></path><path d="M709 131L684 112L648 177Z" fill="#4b4b4b" stroke="#4b4b4b"></path><path d="M531 0L442 0L488 71Z" fill="#4b4b4b" stroke="#4b4b4b"></path><path d="M185 329L183 399L275 370Z" fill="#595959" stroke="#595959"></path><path d="M591 600L653 600L601 502Z" fill="#525252" stroke="#525252"></path><path d="M786 196L709 131L715 246Z" fill="#303030" stroke="#303030"></path><path d="M715 246L709 131L648 177Z" fill="#303030" stroke="#303030"></path><path d="M385 64L281 105L390 172Z" fill="#777777" stroke="#777777"></path><path d="M241 250L162 203L236 270Z" fill="#3d3d3d" stroke="#3d3d3d"></path><path d="M281 105L218 177L266 259Z" fill="#303030" stroke="#303030"></path><path d="M185 484L246 552L283 419Z" fill="#303030" stroke="#303030"></path><path d="M313 529L289 600L394 600Z" fill="#686868" stroke="#686868"></path><path d="M712 545L760 498L707 481Z" fill="#6f6f6f" stroke="#6f6f6f"></path><path d="M816 275L786 196L715 246Z" fill="#595959" stroke="#595959"></path><path d="M246 552L289 600L313 529Z" fill="#303030" stroke="#303030"></path><path d="M183 399L185 484L283 419Z" fill="#595959" stroke="#595959"></path><path d="M246 552L205 600L289 600Z" fill="#303030" stroke="#303030"></path><path d="M259 26L252 102L281 105Z" fill="#3d3d3d" stroke="#3d3d3d"></path><path d="M281 105L252 102L218 177Z" fill="#595959" stroke="#595959"></path><path d="M816 275L700 323L741 368Z" fill="#686868" stroke="#686868"></path><path d="M863 414L816 275L741 368Z" fill="#686868" stroke="#686868"></path><path d="M804 600L817 505L760 498Z" fill="#616161" stroke="#616161"></path><path d="M653 600L713 600L712 545Z" fill="#525252" stroke="#525252"></path><path d="M488 71L442 0L385 64Z" fill="#4b4b4b" stroke="#4b4b4b"></path><path d="M385 64L331 0L281 105Z" fill="#373737" stroke="#373737"></path><path d="M531 0L488 71L576 99Z" fill="#525252" stroke="#525252"></path><path d="M602 0L531 0L576 99Z" fill="#3d3d3d" stroke="#3d3d3d"></path><path d="M218 177L162 203L241 250Z" fill="#616161" stroke="#616161"></path><path d="M185 329L112 314L183 399Z" fill="#525252" stroke="#525252"></path><path d="M183 399L103 499L185 484Z" fill="#525252" stroke="#525252"></path><path d="M125 175L162 203L218 177Z" fill="#616161" stroke="#616161"></path><path d="M640 0L576 99L684 112Z" fill="#6f6f6f" stroke="#6f6f6f"></path><path d="M640 0L602 0L576 99Z" fill="#303030" stroke="#303030"></path><path d="M786 196L796 176L709 131Z" fill="#4b4b4b" stroke="#4b4b4b"></path><path d="M816 181L796 176L786 196Z" fill="#3d3d3d" stroke="#3d3d3d"></path><path d="M640 0L684 112L720 0Z" fill="#373737" stroke="#373737"></path><path d="M162 203L125 263L236 270Z" fill="#777777" stroke="#777777"></path><path d="M816 275L816 181L786 196Z" fill="#6f6f6f" stroke="#6f6f6f"></path><path d="M720 0L684 112L799 64Z" fill="#777777" stroke="#777777"></path><path d="M804 600L760 498L712 545Z" fill="#4b4b4b" stroke="#4b4b4b"></path><path d="M863 421L741 368L717 417Z" fill="#303030" stroke="#303030"></path><path d="M816 275L900 208L816 181Z" fill="#444444" stroke="#444444"></path><path d="M125 263L112 314L185 329Z" fill="#303030" stroke="#303030"></path><path d="M442 0L331 0L385 64Z" fill="#6f6f6f" stroke="#6f6f6f"></path><path d="M157 42L125 175L218 177Z" fill="#373737" stroke="#373737"></path><path d="M684 112L709 131L799 64Z" fill="#3d3d3d" stroke="#3d3d3d"></path><path d="M173 600L246 552L185 484Z" fill="#6f6f6f" stroke="#6f6f6f"></path><path d="M173 600L205 600L246 552Z" fill="#373737" stroke="#373737"></path><path d="M863 421L717 417L760 498Z" fill="#444444" stroke="#444444"></path><path d="M817 505L863 421L760 498Z" fill="#616161" stroke="#616161"></path><path d="M331 0L259 26L281 105Z" fill="#444444" stroke="#444444"></path><path d="M162 203L125 175L125 263Z" fill="#303030" stroke="#303030"></path><path d="M125 263L0 307L112 314Z" fill="#595959" stroke="#595959"></path><path d="M157 42L218 177L252 102Z" fill="#3d3d3d" stroke="#3d3d3d"></path><path d="M103 499L173 600L185 484Z" fill="#4b4b4b" stroke="#4b4b4b"></path><path d="M331 0L261 0L259 26Z" fill="#595959" stroke="#595959"></path><path d="M259 26L157 42L252 102Z" fill="#6f6f6f" stroke="#6f6f6f"></path><path d="M713 600L804 600L712 545Z" fill="#373737" stroke="#373737"></path><path d="M817 505L900 485L863 421Z" fill="#616161" stroke="#616161"></path><path d="M62 459L103 499L183 399Z" fill="#616161" stroke="#616161"></path><path d="M799 64L709 131L796 176Z" fill="#686868" stroke="#686868"></path><path d="M900 485L900 353L863 421Z" fill="#3d3d3d" stroke="#3d3d3d"></path><path d="M863 421L900 353L863 414Z" fill="#616161" stroke="#616161"></path><path d="M863 414L900 353L816 275Z" fill="#303030" stroke="#303030"></path><path d="M900 353L900 308L816 275Z" fill="#3d3d3d" stroke="#3d3d3d"></path><path d="M816 181L799 64L796 176Z" fill="#3d3d3d" stroke="#3d3d3d"></path><path d="M835 57L799 64L816 181Z" fill="#303030" stroke="#303030"></path><path d="M261 0L225 0L259 26Z" fill="#686868" stroke="#686868"></path><path d="M125 175L80 196L125 263Z" fill="#373737" stroke="#373737"></path><path d="M34 363L62 459L183 399Z" fill="#616161" stroke="#616161"></path><path d="M76 98L80 196L125 175Z" fill="#6f6f6f" stroke="#6f6f6f"></path><path d="M34 363L183 399L112 314Z" fill="#303030" stroke="#303030"></path><path d="M103 499L43 563L173 600Z" fill="#3d3d3d" stroke="#3d3d3d"></path><path d="M900 308L900 208L816 275Z" fill="#6f6f6f" stroke="#6f6f6f"></path><path d="M0 155L68 201L80 196Z" fill="#525252" stroke="#525252"></path><path d="M80 196L68 201L125 263Z" fill="#3d3d3d" stroke="#3d3d3d"></path><path d="M900 496L900 485L817 505Z" fill="#303030" stroke="#303030"></path><path d="M900 600L900 496L817 505Z" fill="#616161" stroke="#616161"></path><path d="M225 0L157 42L259 26Z" fill="#373737" stroke="#373737"></path><path d="M0 307L34 363L112 314Z" fill="#303030" stroke="#303030"></path><path d="M900 139L835 57L816 181Z" fill="#616161" stroke="#616161"></path><path d="M799 64L815 0L720 0Z" fill="#444444" stroke="#444444"></path><path d="M900 208L900 139L816 181Z" fill="#303030" stroke="#303030"></path><path d="M157 42L76 98L125 175Z" fill="#6f6f6f" stroke="#6f6f6f"></path><path d="M68 201L0 307L125 263Z" fill="#595959" stroke="#595959"></path><path d="M900 0L815 0L835 57Z" fill="#686868" stroke="#686868"></path><path d="M835 57L815 0L799 64Z" fill="#777777" stroke="#777777"></path><path d="M0 211L0 307L68 201Z" fill="#303030" stroke="#303030"></path><path d="M34 363L0 397L62 459Z" fill="#373737" stroke="#373737"></path><path d="M900 139L900 91L835 57Z" fill="#616161" stroke="#616161"></path><path d="M0 307L0 397L34 363Z" fill="#6f6f6f" stroke="#6f6f6f"></path><path d="M0 521L43 563L103 499Z" fill="#444444" stroke="#444444"></path><path d="M804 600L900 600L817 505Z" fill="#3d3d3d" stroke="#3d3d3d"></path><path d="M157 42L131 0L76 98Z" fill="#303030" stroke="#303030"></path><path d="M225 0L131 0L157 42Z" fill="#444444" stroke="#444444"></path><path d="M0 521L103 499L62 459Z" fill="#303030" stroke="#303030"></path><path d="M0 397L0 453L62 459Z" fill="#686868" stroke="#686868"></path><path d="M0 155L0 211L68 201Z" fill="#6f6f6f" stroke="#6f6f6f"></path><path d="M0 155L80 196L76 98Z" fill="#303030" stroke="#303030"></path><path d="M0 453L0 521L62 459Z" fill="#616161" stroke="#616161"></path><path d="M43 563L34 600L173 600Z" fill="#6f6f6f" stroke="#6f6f6f"></path><path d="M0 600L34 600L43 563Z" fill="#777777" stroke="#777777"></path><path d="M0 123L0 155L76 98Z" fill="#444444" stroke="#444444"></path><path d="M41 0L0 123L76 98Z" fill="#777777" stroke="#777777"></path><path d="M900 91L900 0L835 57Z" fill="#686868" stroke="#686868"></path><path d="M0 521L0 600L43 563Z" fill="#777777" stroke="#777777"></path><path d="M131 0L41 0L76 98Z" fill="#4b4b4b" stroke="#4b4b4b"></path><path d="M41 0L0 0L0 123Z" fill="#6f6f6f" stroke="#6f6f6f"></path></g></svg>