<svg width="814.1374999999999px" height="184.4px" xmlns="http://www.w3.org/2000/svg" viewBox="-157.06874999999997 -17.200000000000003 814.1374999999999 184.4" style="background:#051103" preserveAspectRatio="xMidYMid"><defs><linearGradient id="editing-glowing-gradient" x1="0.8146601955249185" x2="0.18533980447508147" y1="0.8885729807284856" y2="0.11142701927151444"><stop offset="0" stop-color="#67ff43"></stop><stop offset="1" stop-color="#90ffff"></stop></linearGradient><filter id="editing-glowing" x="-100%" y="-100%" width="300%" height="300%"><feGaussianBlur in="SourceGraphic" result="blur" stdDeviation="6"></feGaussianBlur><feMerge><feMergeNode in="blur"></feMergeNode><feMergeNode in="SourceGraphic"></feMergeNode></feMerge></filter></defs><g filter="url(#editing-glowing)"><g transform="translate(-40.47000706195831, 123.41000080108643)"><path d="M22.98 0L0.83 0L12.69-63.23L13.83-68.64L36.09-68.64L22.98 0ZM65.21-6.14L65.21-6.14L65.21-6.14Q62.40 2.08 51.58 2.08L51.58 2.08L51.58 2.08Q43.58 2.08 38.06-7.49L38.06-7.49L38.06-7.49Q32.45-17.06 31.41-32.66L31.41-32.66L31.41-32.66Q42.85-53.56 50.75-62.19L50.75-62.19L50.75-62.19Q58.34-70.41 66.25-70.41L66.25-70.41L66.25-70.41Q70.51-70.41 73.58-68.12L73.58-68.12L73.58-68.12Q76.65-65.83 77.38-62.19L77.38-62.19L77.38-62.19Q73.84-60.74 72.18-59.59L72.18-59.59L72.18-59.59Q68.02-56.47 62.40-49.50L62.40-49.50L52.94-38.17L52.94-38.17Q50.65-35.46 49.71-34.22L49.71-34.22L49.71-34.22Q51.27-25.48 55.95-16.85L55.95-16.85L55.95-16.85Q60.42-8.63 65.21-6.14ZM106.60-29.22L106.60-29.22L106.60-29.22Q110.34-35.88 110.34-42.64L110.34-42.64L110.34-42.64Q110.34-47.11 107.12-47.11L107.12-47.11L107.12-47.11Q104.62-47.11 102.02-42.85L102.02-42.85L102.02-42.85Q99.32-38.58 98.49-33.07L98.49-33.07L93.08 0L71.55 2.08L82.16-53.04L99.32-55.12L97.45-44.62L97.45-44.62Q102.54-55.12 113.98-55.12L113.98-55.12L113.98-55.12Q120.02-55.12 123.29-52.00L123.29-52.00L123.29-52.00Q126.57-48.88 126.57-42.48L126.57-42.48L126.57-42.48Q126.57-36.09 122.36-32.03L122.36-32.03L122.36-32.03Q118.14-27.98 110.97-27.98L110.97-27.98L110.97-27.98Q107.85-27.98 106.60-29.22ZM161.30-11.75L161.30-11.75L161.30-11.75Q155.90-6.14 146.02-6.14L146.02-6.14L146.02-6.14Q133.64-6.14 131.04-15.18L131.04-15.18L131.04-15.18Q130.21-17.89 130.21-20.90L130.21-20.90L130.21-20.90Q130.21-23.92 130.83-27.04L130.83-27.04L135.72-53.04L156.83-55.12L151.11-24.86L151.11-24.86Q150.90-23.50 150.59-22.05L150.59-22.05L150.59-22.05Q150.28-20.59 150.28-19.08L150.28-19.08L150.28-19.08Q150.28-17.58 150.80-16.59L150.80-16.59L150.80-16.59Q151.32-15.60 152.05-14.98L152.05-14.98L152.05-14.98Q153.30-14.14 155.53-14.14L155.53-14.14L155.53-14.14Q157.77-14.14 159.69-16.85L159.69-16.85L159.69-16.85Q161.62-19.55 162.55-24.23L162.55-24.23L168.27-53.04L188.76-55.12L180.96-14.25L180.96-14.25Q177.11 5.72 169.21 13.62L169.21 13.62L169.21 13.62Q165.15 17.68 159.90 19.29L159.90 19.29L159.90 19.29Q154.65 20.90 147.89 20.90L147.89 20.90L147.89 20.90Q136.97 20.90 130.73 17.47L130.73 17.47L130.73 17.47Q124.49 14.04 124.49 8.32L124.49 8.32L124.49 8.32Q124.49 4.06 127.71 1.61L127.71 1.61L127.71 1.61Q130.94-0.83 135.93-0.83L135.93-0.83L135.93-0.83Q140.30-0.83 143.62 1.04L143.62 1.04L143.62 1.04Q145.60 2.18 146.54 3.64L146.54 3.64L146.54 3.64Q144.14 5.72 144.14 9.15L144.14 9.15L144.14 9.15Q144.14 13.73 148.30 13.73L148.30 13.73L148.30 13.73Q155.17 13.73 159.12-2.08L159.12-2.08L159.12-2.08Q160.26-6.76 161.30-11.75ZM240.97-7.12L240.97-7.12L240.97-7.12Q236.60-2.70 230.62-0.31L230.62-0.31L230.62-0.31Q224.64 2.08 218.71 2.08L218.71 2.08L218.71 2.08Q212.78 2.08 210.70 1.04L210.70 1.04L207.48 18.72L186.37 20.80L200.72-53.04L217.67-54.81L216.32-47.63L216.32-47.63Q220.69-55.02 229.74-55.02L229.74-55.02L229.74-55.02Q239.93-55.02 245.34-48.46L245.34-48.46L245.34-48.46Q250.12-42.54 250.12-33.49L250.12-33.49L250.12-33.49Q250.12-24.44 247.73-17.99L247.73-17.99L247.73-17.99Q245.34-11.54 240.97-7.12ZM217.46-36.30L211.95-5.82L211.95-5.82Q214.14-3.95 216.84-3.95L216.84-3.95L216.84-3.95Q219.54-3.95 221.10-4.99L221.10-4.99L221.10-4.99Q222.66-6.03 223.81-8.11L223.81-8.11L223.81-8.11Q226.93-13.73 229.42-30.78L229.42-30.78L229.42-30.78Q230.15-35.78 230.15-40.66L230.15-40.66L230.15-40.66Q230.15-45.55 229.06-47.11L229.06-47.11L229.06-47.11Q227.97-48.67 225.89-48.67L225.89-48.67L225.89-48.67Q219.54-48.67 217.46-36.30L217.46-36.30ZM258.02-10.40L258.02-10.40L258.02-10.40Q258.02-13.21 259.48-20.28L259.48-20.28L264.99-48.36L258.86-48.36L259.27-51.48L259.27-51.48Q271.75-55.22 283.82-64.38L283.82-64.38L288.81-64.38L286.31-53.04L294.42-53.04L293.49-48.36L285.48-48.36L280.18-20.28L280.18-20.28Q278.82-13.83 278.82-11.65L278.82-11.65L278.82-11.65Q278.82-6.66 283.19-5.62L283.19-5.62L283.19-5.62Q282.15-2.08 278.41 0L278.41 0L278.41 0Q274.66 2.08 269.36 2.08L269.36 2.08L269.36 2.08Q264.06 2.08 261.04-1.25L261.04-1.25L261.04-1.25Q258.02-4.58 258.02-10.40ZM316.16 2.08L316.16 2.08L316.16 2.08Q293.28 2.08 293.28-19.45L293.28-19.45L293.28-19.45Q293.28-34.74 301.70-44.62L301.70-44.62L301.70-44.62Q310.65-55.12 326.14-55.12L326.14-55.12L326.14-55.12Q337.38-55.12 343.10-49.92L343.10-49.92L343.10-49.92Q348.82-44.72 348.82-33.80L348.82-33.80L348.82-33.80Q348.82-17.16 339.87-7.49L339.87-7.49L339.87-7.49Q331.14 2.08 316.16 2.08ZM318.86-43.16L318.86-43.16L318.86-43.16Q317.62-40.35 316.63-36.14L316.63-36.14L316.63-36.14Q315.64-31.93 314.39-25.27L314.39-25.27L314.39-25.27Q313.14-18.62 313.14-10.40L313.14-10.40L313.14-10.40Q313.14-7.70 314.03-5.93L314.03-5.93L314.03-5.93Q314.91-4.16 317.30-4.16L317.30-4.16L317.30-4.16Q319.70-4.16 321.20-5.30L321.20-5.30L321.20-5.30Q322.71-6.45 323.86-9.15L323.86-9.15L323.86-9.15Q325.94-13.94 327.60-22.83L327.60-22.83L327.60-22.83Q329.26-31.72 329.42-35.57L329.42-35.57L329.42-35.57Q329.58-39.42 329.58-42.28L329.58-42.28L329.58-42.28Q329.58-45.14 328.74-47.01L328.74-47.01L328.74-47.01Q327.91-48.88 325.57-48.88L325.57-48.88L325.57-48.88Q323.23-48.88 321.67-47.42L321.67-47.42L321.67-47.42Q320.11-45.97 318.86-43.16ZM387.09 0L375.65 0L388.13-68.64L410.49-68.64L426.71-21.42L435.34-68.64L446.89-68.54L434.20 0L410.38 0L395.41-45.45L387.09 0ZM474.45-5.72L474.45-5.72L474.45-5.72Q471.22 2.08 460.93 2.08L460.93 2.08L460.93 2.08Q455.62 2.08 452.30-1.56L452.30-1.56L452.30-1.56Q449.49-4.78 449.49-8.01L449.49-8.01L449.49-8.01Q449.49-16.43 453.34-32.86L453.34-32.86L457.18-53.04L478.30-55.12L471.95-22.26L471.95-22.26Q470.18-14.56 470.18-11.86L470.18-11.86L470.18-11.86Q470.18-5.93 474.45-5.72ZM459.06-67.50L459.06-67.50L459.06-67.50Q459.06-71.55 462.44-73.74L462.44-73.74L462.44-73.74Q465.82-75.92 470.70-75.92L470.70-75.92L470.70-75.92Q475.59-75.92 478.56-73.74L478.56-73.74L478.56-73.74Q481.52-71.55 481.52-67.50L481.52-67.50L481.52-67.50Q481.52-63.44 478.24-61.36L478.24-61.36L478.24-61.36Q474.97-59.28 470.08-59.28L470.08-59.28L470.08-59.28Q465.19-59.28 462.12-61.36L462.12-61.36L462.12-61.36Q459.06-63.44 459.06-67.50ZM484.95-10.40L484.95-10.40L484.95-10.40Q484.95-13.21 486.41-20.28L486.41-20.28L491.92-48.36L485.78-48.36L486.20-51.48L486.20-51.48Q498.68-55.22 510.74-64.38L510.74-64.38L515.74-64.38L513.24-53.04L521.35-53.04L520.42-48.36L512.41-48.36L507.10-20.28L507.10-20.28Q505.75-13.83 505.75-11.65L505.75-11.65L505.75-11.65Q505.75-6.66 510.12-5.62L510.12-5.62L510.12-5.62Q509.08-2.08 505.34 0L505.34 0L505.34 0Q501.59 2.08 496.29 2.08L496.29 2.08L496.29 2.08Q490.98 2.08 487.97-1.25L487.97-1.25L487.97-1.25Q484.95-4.58 484.95-10.40ZM524.94-3.12L524.94-3.12L524.94-3.12Q522.50-5.82 521.40-10.09L521.40-10.09L521.40-10.09Q520.31-14.35 520.31-21.32L520.31-21.32L520.31-21.32Q520.31-28.29 522.70-34.63L522.70-34.63L522.70-34.63Q525.10-40.98 529.46-45.55L529.46-45.55L529.46-45.55Q538.41-55.12 553.18-55.12L553.18-55.12L553.18-55.12Q558.48-55.12 562.33-53.35L562.33-53.35L580.11-55.12L572.42-14.56L572.42-14.56Q572.10-13.31 572.10-11.02L572.10-11.02L572.10-11.02Q572.10-8.74 573.51-7.28L573.51-7.28L573.51-7.28Q574.91-5.82 576.99-5.62L576.99-5.62L576.99-5.62Q575.95-2.08 572.16 0L572.16 0L572.16 0Q568.36 2.08 564.10 2.08L564.10 2.08L564.10 2.08Q559.83 2.08 556.97 0.47L556.97 0.47L556.97 0.47Q554.11-1.14 553.28-3.85L553.28-3.85L553.28-3.85Q551.62-1.25 548.08 0.42L548.08 0.42L548.08 0.42Q544.54 2.08 539.81 2.08L539.81 2.08L539.81 2.08Q535.08 2.08 531.23 0.83L531.23 0.83L531.23 0.83Q527.38-0.42 524.94-3.12ZM546.88-45.34L546.88-45.34L546.88-45.34Q545.69-43.47 544.65-40.30L544.65-40.30L544.65-40.30Q543.61-37.13 541.89-28.65L541.89-28.65L541.89-28.65Q540.18-20.18 540.18-14.14L540.18-14.14L540.18-14.14Q540.18-8.11 541.11-6.34L541.11-6.34L541.11-6.34Q542.05-4.58 543.71-4.58L543.71-4.58L543.71-4.58Q547.04-4.58 549.48-7.75L549.48-7.75L549.48-7.75Q551.93-10.92 552.86-16.54L552.86-16.54L558.38-47.01L558.38-47.01Q556.19-48.88 553.64-48.88L553.64-48.88L553.64-48.88Q551.10-48.88 549.59-48.05L549.59-48.05L549.59-48.05Q548.08-47.22 546.88-45.34Z" fill="url(#editing-glowing-gradient)"></path></g></g><style>text {
  font-size: 64px;
  font-family: Arial Black;
  dominant-baseline: central;
  text-anchor: middle;
}</style></svg>